#!OML:ASF X:\für Bonn\!DataBase\2005_08_12_Daniel\c3d\Daniel.ASF
:FULLY-SPECIFIED
:DEGREES
123
root -0.234838 15.6541 0.191675 -32.2412 85.2114 -384.028
lowerback 39.2279 -2.4918 4.71796
upperback 6.39308 -0.437412 -0.920847
thorax -12.0692 0.0230938 -3.35773
lowerneck -1.09853 1.72708 -2.60914
upperneck 2.73768 2.43734 -2.15621
head 1.01377 1.17218 -0.200476
rclavicle 6.60959e-015 6.4605e-015
rhumerus -4.49417 5.02473 -95.9973
rradius 26.3746
rwrist 15.2257
rhand -25.2059 11.6447
rfingers 7.12502
rthumb 1.31271 -18.331
lclavicle 6.60959e-015 6.4605e-015
lhumerus -7.91794 -10.9321 92.1116
lradius 36.7981
lwrist -6.79493
lhand -14.0067 -9.46693
lfingers 7.12502
lthumb 12.1226 20.1619
rfemur -37.1022 -2.12846 22.4123
rtibia 59.9762
rfoot -13.4541 2.51995
rtoes -6.71221
lfemur -41.895 3.08483 -16.3869
ltibia 65.0915
lfoot -15.8567 -4.55387
ltoes -6.98592
124
root -0.065531 15.4704 0.179608 -33.9703 84.95 -385.825
lowerback 39.787 -2.54375 4.81229
upperback 6.4874 -0.394149 -0.844272
thorax -12.1444 0.0519084 -3.34038
lowerneck -1.42238 1.7702 -2.66393
upperneck 2.83017 2.50998 -2.14838
head 1.09693 1.20391 -0.184366
rclavicle 1.68967e-015 7.45443e-015
rhumerus -4.61446 -1.04815 -95.7747
rradius 22.5416
rwrist 17.8046
rhand -26.7931 10.3627
rfingers 7.12502
rthumb -0.220282 -19.6169
lclavicle 1.68967e-015 7.45443e-015
lhumerus -8.48052 -5.80274 92.215
lradius 33.0296
lwrist -9.326
lhand -15.6905 -9.50213
lfingers 7.12502
lthumb 10.4987 20.2157
rfemur -38.6317 -2.4894 22.6649
rtibia 63.2847
rfoot -15.0565 3.29565
rtoes -6.93196
lfemur -43.5654 3.01564 -16.1158
ltibia 68.4246
lfoot -16.5792 -4.56453
ltoes -5.94239
125
root 0.0996649 15.31 0.16532 -35.1878 84.6735 -387.283
lowerback 40.2065 -2.57016 4.89505
upperback 6.55288 -0.34001 -0.777845
thorax -12.2026 0.0818563 -3.33326
lowerneck -1.53884 1.82815 -2.72715
upperneck 2.79231 2.5907 -2.1234
head 1.10359 1.24347 -0.164252
rclavicle -5.26779e-015 2.87244e-014
rhumerus -4.86338 -8.8046 -95.2988
rradius 18.8982
rwrist 21.5664
rhand -28.1738 9.2696
rfingers 7.12502
rthumb -1.55378 -20.7045
lclavicle -5.26779e-015 2.87244e-014
lhumerus -9.11136 0.0135766 91.9427
lradius 29.2774
lwrist -12.4979
lhand -17.4475 -9.19087
lfingers 7.12502
lthumb 8.80356 20.6055
rfemur -40.0615 -2.79554 22.8916
rtibia 66.1418
rfoot -16.4551 4.00032
rtoes -7.15826
lfemur -45.0133 2.93273 -15.8571
ltibia 71.2598
lfoot -17.4545 -4.56748
ltoes -5.10255
126
root 0.254013 15.192 0.146462 -35.2131 84.3 -387.644
lowerback 40.5896 -2.53893 4.9238
upperback 6.57463 -0.249817 -0.739104
thorax -12.2956 0.124134 -3.34456
lowerneck -1.41804 1.89049 -2.77734
upperneck 2.67183 2.66792 -2.15784
head 1.04487 1.28403 -0.167641
rclavicle -2.6339e-015 2.95195e-014
rhumerus -5.44191 -18.714 -94.3557
rradius 15.5979
rwrist 27.34
rhand -29.2752 8.50252
rfingers 7.12502
rthumb -2.61749 -21.4612
lclavicle -2.6339e-015 2.95195e-014
lhumerus -10.0188 6.09543 91.1645
lradius 25.6894
lwrist -16.1404
lhand -19.0502 -8.39022
lfingers 7.12502
lthumb 7.25668 21.4653
rfemur -41.1911 -3.01471 23.0937
rtibia 68.366
rfoot -17.731 4.68574
rtoes -7.51527
lfemur -46.0676 2.90692 -15.648
ltibia 73.5132
lfoot -18.5655 -4.45988
ltoes -5.42798
127
root 0.397282 15.107 0.122741 -34.1447 83.8101 -387.003
lowerback 40.8503 -2.41894 4.9144
upperback 6.60121 -0.0825758 -0.727008
thorax -12.3365 0.200477 -3.39976
lowerneck -1.09317 1.94993 -2.85746
upperneck 2.42469 2.72875 -2.15822
head 0.911439 1.32032 -0.159289
rclavicle 2.18663e-015 -4.96962e-016
rhumerus -6.55292 -31.2564 -92.5221
rradius 12.7391
rwrist 35.7553
rhand -29.9368 7.89587
rfingers 7.12502
rthumb -3.25642 -22.059
lclavicle 2.18663e-015 -4.96962e-016
lhumerus -11.2605 12.2502 89.848
lradius 22.3712
lwrist -20.3664
lhand -20.2683 -6.9617
lfingers 7.12502
lthumb 6.08079 22.931
rfemur -42.1104 -3.05011 23.2546
rtibia 70.0178
rfoot -18.7916 5.34321
rtoes -7.68319
lfemur -46.864 3.01037 -15.4847
ltibia 75.291
lfoot -19.8648 -4.3035
ltoes -6.55159
128
root 0.534663 15.0506 0.0965229 -32.4506 83.2942 -385.753
lowerback 41.0356 -2.25921 4.85116
upperback 6.64357 0.0999621 -0.741824
thorax -12.3339 0.285744 -3.46342
lowerneck -0.638829 2.00947 -3.0167
upperneck 2.14872 2.7831 -2.11088
head 0.746593 1.35485 -0.125833
rclavicle 1.16289e-014 -1.09332e-015
rhumerus -9.08438 -46.0975 -88.8534
rradius 10.5035
rwrist 46.8782
rhand -30.0752 7.42724
rfingers 7.12502
rthumb -3.39004 -22.5256
lclavicle 1.16289e-014 -1.09332e-015
lhumerus -12.8976 18.9475 87.8864
lradius 19.3709
lwrist -25.8414
lhand -20.8305 -5.16413
lfingers 7.12502
lthumb 5.53798 24.7435
rfemur -42.7987 -2.97751 23.3527
rtibia 71.1962
rfoot -19.5822 5.85695
rtoes -8.04466
lfemur -47.3855 3.09187 -15.3898
ltibia 76.6399
lfoot -21.1738 -4.06273
ltoes -7.4907
129
root 0.670841 15.0147 0.0718632 -31.1268 82.7852 -384.923
lowerback 41.0585 -2.08864 4.81278
upperback 6.7416 0.29782 -0.749705
thorax -12.2128 0.381562 -3.53832
lowerneck -0.172134 2.04543 -3.19556
upperneck 1.80601 2.80281 -2.08749
head 0.560978 1.3733 -0.0980024
rclavicle -1.80894e-014 2.42517e-014
rhumerus -10.246 -45.0307 -87.3543
rradius 8.59004
rwrist 42.677
rhand -30.37 4.34554
rfingers 7.12502
rthumb -3.67472 -25.6025
lclavicle -1.80894e-014 2.42517e-014
lhumerus -14.9992 26.3307 85.0897
lradius 16.7463
lwrist -32.8541
lhand -20.5193 -3.31097
lfingers 7.12502
lthumb 5.83849 26.5886
rfemur -43.3064 -2.81954 23.4558
rtibia 72.0039
rfoot -20.2182 6.28409
rtoes -8.18355
lfemur -47.8418 3.39046 -15.3117
ltibia 77.6688
lfoot -22.2485 -3.97743
ltoes -7.74807
